# xmcd
# 
# Track frame offsets:
#     150
#     19747
#     36170
#     57325
#     75997
#     94012
#     110127
#     127242
#     145072
#     163667
#     181977
#     196750
#     218115
#     242227
#     254365
#     271850
#     284815
#     300727
# 
# Disc length: 4277
# 
# Revision: 0
# Processed by: cddbd v1.5.2PL0 Copyright (c) Steve Scherf et al.
# Submitted via: fre:ac v1.1beta1pre4
# 
DISCID=0810b312
DTITLE=メルティランサー - THE 3rd Planet オリジナル・ゲーム・サウンドトラック
DYEAR=1999
DGENRE=Game
TTITLE0=Identify(歌:アンジェラ/Cv丹下桜)
TTITLE1=シルビィ
TTITLE2=アンジェラ
TTITLE3=サクヤ
TTITLE4=ジュン
TTITLE5=メルビナ
TTITLE6=ナナ
TTITLE7=パティ
TTITLE8=ルナシティ
TTITLE9=王党派
TTITLE10=破戒神官
TTITLE11=特別機動班・維新組
TTITLE12=プライベート〜つかのまの休息〜
TTITLE13=ヴァケーション〜つかのまの休日〜
TTITLE14=革命軍
TTITLE15=ヴァネッサーズ
TTITLE16=冬
TTITLE17=Destiny(歌:パティ/CV菊池志穂)
EXTD=
EXTT0=
EXTT1=
EXTT2=
EXTT3=
EXTT4=
EXTT5=
EXTT6=
EXTT7=
EXTT8=
EXTT9=
EXTT10=
EXTT11=
EXTT12=
EXTT13=
EXTT14=
EXTT15=
EXTT16=
EXTT17=
PLAYORDER=
